<svg width="20" height="20" viewBox="0 0 20 20" fill="none" xmlns="http://www.w3.org/2000/svg">
<path d="M5.15833 18.2125C5.0649 18.2795 4.9548 18.3194 4.84015 18.3279C4.7255 18.3363 4.61074 18.313 4.50849 18.2604C4.40624 18.2079 4.32046 18.1282 4.26059 18.03C4.20073 17.9319 4.16909 17.8191 4.16916 17.7042V5.20833C4.16916 4.49004 4.4545 3.80116 4.96241 3.29325C5.47032 2.78534 6.1592 2.5 6.87749 2.5H13.1258C13.8441 2.5 14.533 2.78534 15.0409 3.29325C15.5488 3.80116 15.8342 4.49004 15.8342 5.20833V17.705C15.8342 17.82 15.8025 17.9328 15.7425 18.031C15.6825 18.1292 15.5966 18.2089 15.4943 18.2613C15.3919 18.3138 15.2771 18.337 15.1623 18.3284C15.0476 18.3198 14.9375 18.2797 14.8442 18.2125L10.0025 14.7283L5.15833 18.2125ZM14.585 5.20833C14.585 4.82156 14.4313 4.45063 14.1579 4.17714C13.8844 3.90365 13.5134 3.75 13.1267 3.75H6.87749C6.49072 3.75 6.11979 3.90365 5.8463 4.17714C5.5728 4.45063 5.41916 4.82156 5.41916 5.20833V16.485L9.63666 13.4508C9.74299 13.3743 9.87067 13.3332 10.0017 13.3332C10.1326 13.3332 10.2603 13.3743 10.3667 13.4508L14.5842 16.485L14.585 5.20833Z" fill="black"/>
</svg>
